<?xml version="1.0" standalone="no"?>
<!DOCTYPE svg PUBLIC "-//W3C//DTD SVG 20010904//EN"
 "http://www.w3.org/TR/2001/REC-SVG-20010904/DTD/svg10.dtd">
<svg version="1.0" xmlns="http://www.w3.org/2000/svg"
 width="2000.000000pt" height="2000.000000pt" viewBox="0 0 2000.000000 2000.000000"
 preserveAspectRatio="xMidYMid meet">
<metadata>
Created by potrace 1.14, written by Peter Selinger 2001-2017
</metadata>
<g transform="translate(0.000000,2000.000000) scale(0.100000,-0.100000)"
fill="#000000" stroke="none">
<path d="M16760 17678 c-19 -29 -82 -125 -140 -213 -58 -88 -107 -164 -110
-170 -3 -5 -45 -71 -94 -145 -85 -130 -165 -252 -375 -575 -54 -82 -136 -208
-183 -280 -78 -120 -142 -217 -303 -465 -34 -52 -114 -175 -178 -273 -65 -98
-117 -180 -117 -183 0 -3 -5 -10 -11 -17 -10 -11 -71 -104 -248 -377 -41 -63
-126 -194 -189 -290 -63 -96 -129 -197 -147 -225 -18 -27 -84 -129 -147 -225
-62 -96 -152 -233 -198 -305 -47 -71 -88 -131 -92 -133 -5 -2 -8 -8 -8 -14 0
-5 -22 -42 -48 -81 -27 -40 -94 -142 -150 -227 -56 -85 -134 -205 -174 -267
-40 -62 -77 -119 -83 -128 -9 -14 -17 -14 -90 4 -44 11 -98 22 -120 25 -22 3
-51 8 -65 11 -14 3 -50 7 -80 10 -65 7 -135 16 -136 18 -8 12 -128 176 -137
187 -51 64 -94 117 -102 126 -5 6 -43 47 -82 91 -100 111 -194 205 -289 288
-43 39 -81 72 -84 75 -3 3 -27 24 -55 45 -27 22 -56 46 -64 53 -8 7 -26 21
-40 30 -14 9 -30 22 -34 29 -4 7 -14 13 -22 13 -7 0 -15 4 -17 9 -4 12 -224
157 -341 225 -116 69 -370 192 -482 236 -44 17 -89 35 -100 39 -11 5 -49 19
-85 31 -36 12 -74 26 -85 30 -22 9 -198 59 -230 65 -11 3 -38 9 -60 14 -116
28 -195 44 -279 57 -21 3 -47 7 -58 9 -11 3 -46 7 -77 10 -31 3 -65 8 -76 10
-146 29 -718 24 -915 -9 -19 -3 -53 -8 -75 -11 -51 -7 -162 -27 -225 -40 -14
-3 -34 -7 -45 -9 -167 -32 -581 -166 -722 -234 -297 -144 -561 -289 -571 -314
-2 -4 -8 -8 -14 -8 -8 0 -150 -97 -192 -131 -6 -5 -35 -27 -64 -50 -190 -145
-435 -382 -586 -567 l-60 -72 -65 -1 c-37 0 -82 -3 -101 -5 -19 -2 -65 -5
-102 -6 -37 -2 -68 -5 -68 -8 0 -3 -8 -6 -17 -6 -22 -1 -109 -12 -143 -19 -14
-3 -50 -9 -80 -15 -57 -10 -86 -16 -120 -25 -11 -3 -28 -7 -38 -9 -99 -23
-349 -101 -417 -131 -16 -7 -46 -18 -65 -26 -59 -21 -273 -125 -372 -180 -111
-62 -269 -164 -355 -231 -35 -26 -67 -48 -72 -48 -5 0 -11 -4 -13 -9 -1 -4
-32 -32 -68 -62 -122 -100 -287 -260 -385 -374 -28 -32 -55 -63 -60 -69 -6 -6
-40 -49 -75 -96 -36 -47 -71 -91 -77 -98 -7 -7 -13 -17 -13 -22 0 -5 -6 -15
-13 -22 -15 -15 -87 -125 -141 -216 -44 -73 -36 -73 -174 -1 -50 27 -95 49
-100 49 -4 0 -18 4 -32 9 -14 4 -27 8 -30 8 -9 -1 -174 87 -193 102 -22 18
-30 10 -32 -31 -7 -128 -17 -307 -20 -383 -2 -49 -7 -137 -11 -195 -11 -183
-6 -652 11 -890 5 -77 15 -197 20 -250 2 -25 7 -79 10 -120 4 -41 8 -88 10
-105 3 -16 7 -55 10 -85 3 -30 8 -67 11 -82 3 -14 7 -43 9 -65 4 -42 32 -233
40 -273 3 -14 7 -38 10 -55 3 -16 7 -43 10 -60 3 -16 8 -43 10 -60 2 -16 14
-75 25 -130 12 -55 24 -111 26 -125 3 -14 21 -92 40 -175 19 -82 37 -158 39
-169 3 -10 11 -42 19 -70 8 -28 17 -62 20 -76 8 -43 105 -367 120 -405 8 -19
13 -35 11 -35 -2 0 19 -64 47 -142 27 -79 54 -154 58 -168 16 -49 80 -215 90
-232 5 -10 10 -23 10 -28 0 -6 8 -30 19 -53 10 -23 47 -107 81 -187 108 -252
293 -618 435 -860 37 -63 75 -128 85 -145 43 -76 222 -349 280 -430 126 -174
306 -412 330 -435 3 -3 25 -30 50 -60 25 -30 47 -57 50 -60 3 -3 34 -39 70
-80 199 -228 482 -507 706 -695 25 -22 52 -45 58 -51 11 -10 141 -113 201
-159 66 -51 122 -93 170 -125 28 -19 56 -40 63 -47 7 -7 17 -13 22 -13 5 0 15
-6 22 -13 7 -7 31 -24 53 -37 22 -13 42 -26 45 -29 3 -4 14 -11 25 -18 173
-106 286 -173 291 -173 3 0 18 -9 33 -20 27 -19 424 -220 435 -220 3 0 29 -11
58 -24 29 -12 61 -26 70 -29 10 -4 18 -11 18 -16 0 -6 -123 -10 -338 -10 -194
0 -350 -4 -364 -10 -14 -5 -28 -8 -31 -5 -9 9 -160 -57 -217 -96 -107 -72
-177 -156 -230 -274 -94 -207 -63 -482 75 -654 93 -116 193 -185 340 -233 l70
-22 2655 -2 c1460 0 2679 3 2708 7 140 22 256 81 356 183 91 92 91 92 130 178
56 122 61 147 61 297 -1 81 -6 121 -24 175 -58 179 -186 322 -357 401 -114 52
-120 53 -526 54 -181 0 -328 4 -328 8 0 4 39 25 88 46 113 50 413 198 477 236
28 17 60 34 71 39 32 14 302 180 339 208 6 5 42 29 80 55 430 289 899 715
1290 1170 99 115 292 360 345 438 8 12 26 37 40 55 40 53 63 85 74 104 6 10
39 59 74 109 34 50 62 94 62 97 0 4 11 21 24 38 23 32 177 285 231 382 116
207 265 507 352 705 30 69 61 139 68 155 7 17 34 84 60 150 26 66 54 135 62
153 8 18 16 41 18 52 2 10 8 27 13 37 47 92 244 740 287 943 2 8 4 15 5 15 1
0 3 7 5 15 2 8 17 74 33 145 26 111 69 326 87 430 2 17 7 41 10 55 3 14 8 41
10 60 3 19 7 46 10 60 6 30 12 69 20 130 3 25 8 56 10 70 2 14 6 45 10 70 3
25 7 61 10 80 6 45 14 122 20 185 3 28 7 68 10 90 2 22 7 81 10 130 3 50 8
108 10 130 26 254 25 1165 0 1415 -4 30 -8 82 -10 115 -2 33 -4 61 -4 62 -1 1
-45 -21 -98 -49 -159 -82 -406 -205 -429 -212 -17 -5 -27 0 -43 20 -12 15 -21
32 -21 38 0 6 -9 22 -20 36 -11 14 -41 57 -67 95 -25 39 -49 72 -52 75 -4 3
-15 18 -25 35 -37 58 -201 250 -269 316 l-27 27 33 28 c63 54 121 102 461 377
67 54 132 108 146 120 14 12 45 38 70 57 24 19 52 42 61 50 9 8 32 27 50 42
19 15 59 47 89 72 30 25 111 91 180 146 164 133 211 172 226 188 7 6 15 12 18
12 5 0 37 26 80 65 6 6 31 26 56 45 25 19 47 37 50 40 4 5 165 137 330 270 24
19 48 40 54 45 6 6 31 26 56 45 25 19 47 37 50 40 3 4 55 46 115 95 61 49 126
102 146 119 40 34 82 68 174 142 33 27 62 51 65 54 3 3 28 23 55 45 28 21 52
42 55 45 3 3 25 21 50 40 25 19 47 37 50 40 3 3 30 25 60 50 30 25 64 52 75
61 11 10 85 70 165 135 80 65 170 138 201 164 96 79 263 214 277 225 7 5 21
17 30 25 10 8 53 44 97 79 124 100 180 145 185 152 3 3 39 32 80 64 41 33 77
62 80 65 3 3 52 44 110 90 58 47 107 87 110 90 3 3 28 23 55 45 28 21 52 42
55 45 3 3 27 24 55 45 76 61 85 68 113 93 15 12 46 37 69 55 23 18 41 35 40
39 -2 7 -276 331 -333 395 l-32 34 -25 -23 c-14 -13 -46 -41 -72 -63 -26 -22
-57 -48 -69 -58 -11 -10 -43 -37 -70 -60 -28 -23 -118 -100 -200 -171 -83 -71
-173 -147 -200 -170 -27 -22 -56 -48 -65 -56 -10 -8 -44 -37 -76 -65 -33 -27
-65 -54 -71 -60 -7 -5 -29 -24 -50 -41 -22 -18 -50 -42 -65 -55 -14 -13 -81
-71 -150 -129 -68 -57 -126 -107 -129 -110 -3 -3 -34 -29 -70 -59 -36 -30 -73
-62 -82 -70 -9 -9 -24 -21 -32 -28 -58 -48 -247 -210 -276 -236 -20 -18 -58
-50 -85 -72 -28 -21 -57 -46 -65 -55 -8 -8 -40 -36 -70 -60 -30 -25 -64 -54
-76 -65 -12 -11 -41 -36 -64 -54 -23 -19 -48 -40 -54 -46 -6 -5 -38 -33 -71
-60 -33 -28 -62 -53 -65 -56 -3 -3 -34 -30 -70 -60 -115 -97 -123 -104 -139
-119 -9 -8 -39 -33 -66 -55 -28 -22 -54 -45 -60 -51 -5 -7 -55 -49 -110 -95
-55 -46 -105 -88 -111 -94 -6 -5 -49 -41 -94 -80 -46 -38 -107 -90 -135 -115
-28 -25 -75 -65 -105 -90 -29 -25 -58 -49 -64 -55 -6 -5 -38 -32 -71 -60 -33
-27 -73 -62 -90 -76 -61 -54 -133 -115 -180 -154 -27 -22 -59 -49 -71 -60 -24
-22 -27 -24 -169 -144 -55 -46 -104 -89 -110 -95 -5 -6 -30 -27 -55 -46 -25
-19 -47 -37 -50 -41 -3 -3 -43 -39 -90 -79 -47 -39 -96 -82 -110 -93 -14 -12
-72 -62 -130 -111 -58 -49 -107 -92 -110 -95 -3 -4 -26 -23 -51 -44 -44 -35
-79 -48 -79 -28 0 5 -8 11 -17 15 -10 3 -36 19 -58 36 -35 26 -120 79 -210
132 -16 10 -85 45 -152 79 l-122 62 27 36 c16 20 36 49 47 66 10 16 22 34 27
40 5 5 65 93 135 195 69 102 162 238 207 303 44 65 86 126 91 135 6 9 14 21
18 26 29 39 177 258 177 264 0 3 8 15 18 26 11 12 75 104 144 206 69 102 164
241 211 310 47 69 124 181 171 250 47 69 116 170 153 225 38 55 109 159 158
230 48 72 122 180 163 240 42 61 114 166 161 235 47 69 89 127 93 128 4 2 8 8
8 14 0 6 12 27 28 47 15 20 32 43 37 53 18 31 218 323 225 328 3 3 9 12 13 20
4 8 67 103 141 210 74 107 165 240 203 295 37 55 148 217 246 360 l177 259
-202 132 c-112 73 -208 136 -214 141 -13 10 -53 33 -57 33 -2 0 -19 -24 -37
-52z"/>
</g>
</svg>
